<?xml version="1.0" encoding="iso-8859-1"?>
<!-- Generator: Adobe Illustrator 19.0.0, SVG Export Plug-In . SVG Version: 6.00 Build 0)  -->
<svg version="1.1" id="Capa_1" xmlns="http://www.w3.org/2000/svg" xmlns:xlink="http://www.w3.org/1999/xlink" x="0px" y="0px"
	 viewBox="0 0 512 512" style="enable-background:new 0 0 512 512;" xml:space="preserve">
<g>
	<g>
		<path d="M416.945,434.408h-23.857V249.824c0-48.302-18.81-93.713-52.965-127.867c-34.154-34.155-79.565-52.965-127.867-52.965
			h-17.434V55.278c0-5.335,4.341-9.675,9.676-9.675h114.291c8.284,0,15-6.716,15-15V15c0-8.284-6.716-15-15-15h-99.704
			c-8.284,0-15,6.716-15,15v0.605c-21.688,0.222-39.263,17.934-39.263,39.673v13.714h-42.221c-20.982,0-38.053,17.07-38.053,38.053
			c0,20.983,17.07,38.053,38.053,38.053h0.306v43.692c0,8.284,6.716,15,15,15h4.771v2.878c0,8.284,6.716,15,15,15s15-6.716,15-15
			v-2.878h4.771c8.284,0,15-6.716,15-15v-40.783c21.646,4.875,41.519,15.767,57.591,31.839c22.407,22.408,34.748,52.2,34.748,83.889
			v170.674h-21.544c-8.284,0-15,6.716-15,15V497c0,8.284,6.716,15,15,15h153.701c8.284,0,15-6.716,15-15v-47.592
			C431.945,441.124,425.229,434.408,416.945,434.408z M162.449,173.79h-9.542v-28.692h9.542V173.79z M271.253,158.632
			c-28.073-28.073-65.399-43.534-105.102-43.534h-43.55c-4.44,0-8.053-3.612-8.053-8.053c0-4.441,3.612-8.053,8.053-8.053h89.654
			c40.288,0,78.166,15.689,106.654,44.178c28.488,28.489,44.178,66.366,44.178,106.654v184.584h-48.3V263.734
			C314.788,224.033,299.327,186.707,271.253,158.632z M401.945,482H278.244v-17.592h123.701V482z"/>
	</g>
</g>
<g>
	<g>
		<path d="M220.302,238.379H95.055c-8.284,0-15,6.716-15,15v67.552c0,18.582,3.9,36.673,11.592,53.768
			c5.938,13.203,8.95,27.152,8.95,41.462v69.473c-3.197,2.751-5.229,6.818-5.229,11.366c0,8.284,6.716,15,15,15h94.622
			c8.284,0,15-6.716,15-15c0-4.548-2.032-8.615-5.229-11.365V416.16c0-14.312,3.011-28.261,8.949-41.461
			c7.692-17.095,11.592-35.185,11.592-53.769v-67.552C235.302,245.095,228.586,238.379,220.302,238.379z M205.302,320.93
			c0,14.312-3.011,28.261-8.95,41.46c-7.692,17.096-11.591,35.187-11.591,53.77V482h-54.164v-65.84
			c0-18.582-3.9-36.672-11.592-53.77c-5.939-13.201-8.95-27.15-8.95-41.46v-6.535c0.107,0.002,0.211,0.016,0.319,0.016h94.928
			V320.93z M205.302,284.412h-94.928c-0.108,0-0.212,0.014-0.319,0.016v-16.049h95.247V284.412z"/>
	</g>
</g>
<g>
</g>
<g>
</g>
<g>
</g>
<g>
</g>
<g>
</g>
<g>
</g>
<g>
</g>
<g>
</g>
<g>
</g>
<g>
</g>
<g>
</g>
<g>
</g>
<g>
</g>
<g>
</g>
<g>
</g>
</svg>
