<?xml version="1.0" encoding="UTF-8" standalone="no"?>
<!-- Generator: Adobe Illustrator 18.0.0, SVG Export Plug-In . SVG Version: 6.00 Build 0)  -->

<svg
   xmlns:dc="http://purl.org/dc/elements/1.1/"
   xmlns:cc="http://creativecommons.org/ns#"
   xmlns:rdf="http://www.w3.org/1999/02/22-rdf-syntax-ns#"
   xmlns:svg="http://www.w3.org/2000/svg"
   xmlns="http://www.w3.org/2000/svg"
   xmlns:sodipodi="http://sodipodi.sourceforge.net/DTD/sodipodi-0.dtd"
   xmlns:inkscape="http://www.inkscape.org/namespaces/inkscape"
   version="1.1"
   id="Capa_1"
   x="0px"
   y="0px"
   viewBox="0 0 52 52"
   style="enable-background:new 0 0 52 52;"
   xml:space="preserve"
   sodipodi:docname="homescreen.svg"
   inkscape:version="0.92.2 (5c3e80d, 2017-08-06)"><metadata
     id="metadata7029"><rdf:RDF><cc:Work
         rdf:about=""><dc:format>image/svg+xml</dc:format><dc:type
           rdf:resource="http://purl.org/dc/dcmitype/StillImage" /><dc:title></dc:title></cc:Work></rdf:RDF></metadata><defs
     id="defs7027" /><sodipodi:namedview
     pagecolor="#ffffff"
     bordercolor="#666666"
     borderopacity="1"
     objecttolerance="10"
     gridtolerance="10"
     guidetolerance="10"
     inkscape:pageopacity="0"
     inkscape:pageshadow="2"
     inkscape:window-width="958"
     inkscape:window-height="1018"
     id="namedview7025"
     showgrid="false"
     inkscape:zoom="8"
     inkscape:cx="23.447917"
     inkscape:cy="20.377074"
     inkscape:window-x="-7"
     inkscape:window-y="0"
     inkscape:window-maximized="0"
     inkscape:current-layer="Capa_1" /><rect
     style="opacity:1;fill:#404040;fill-opacity:1;stroke:#404040;stroke-width:0.002;stroke-miterlimit:4;stroke-dasharray:none;stroke-opacity:1"
     id="rect7031"
     width="52.237514"
     height="52.237514"
     x="0"
     y="0.027651707"
     ry="6.375" /><g
     id="g6992"
     transform="matrix(0.92548077,0,0,0.92548077,2.2608173,1.875)"><path
       style="fill:#e6e6e6"
       d="m 44.5,20.232 h -6 v 4 h 4 c 1.1,0 2,0.9 2,2 v 10 c 0,1.1 -0.9,2 -2,2 h -4 v 4 h 6 c 2.2,0 4,-1.8 4,-4 v -14 c 0,-2.2 -1.8,-4 -4,-4 z"
       id="path6976"
       inkscape:connector-curvature="0" /><path
       style="fill:#e6e6e6"
       d="M 32.5,4 C 31.117,4 29.847,4.472 28.833,5.258 27.837,3.325 25.825,2 23.5,2 22.651,2 21.845,2.178 21.113,2.496 19.924,0.979 18.078,0 16,0 12.875,0 10.268,2.205 9.644,5.144 9.275,5.057 8.895,5 8.5,5 c -2.761,0 -5,2.239 -5,5 v 8 c 0,1.1 0.9,2 2,2 h 1 c 1.1,0 2,-0.9 2,-2 V 16.404 C 9.106,16.775 9.809,17 10.568,17 h 1.967 c 1.275,0 2.402,-0.615 3.136,-1.551 1.089,1.539 2.879,2.551 4.897,2.551 3.3,0 6,-2.7 6,-6 h 11.583 c 0.222,-0.626 0.349,-1.298 0.349,-2 0,-3.314 -2.686,-6 -6,-6 z"
       id="path6978"
       inkscape:connector-curvature="0" /><path
       style="fill:#f4c44e"
       d="m 26.568,12 c 0,3.3 -2.7,6 -6,6 C 18.55,18 16.76,16.988 15.671,15.449 14.937,16.385 13.81,17 12.535,17 H 10.568 C 9.81,17 9.106,16.775 8.5,16.404 V 47 c 0,2.75 2.25,5 5,5 h 20 c 2.75,0 5,-2.25 5,-5 V 12 Z"
       id="path6980"
       inkscape:connector-curvature="0" /><path
       style="fill:#f9da49"
       d="m 14.5,25 c 0,-1.65 -1.35,-3 -3,-3 -1.65,0 -3,1.35 -3,3 v 21 h 6 z"
       id="path6982"
       inkscape:connector-curvature="0" /><path
       style="fill:#eeaf4b"
       d="m 20.5,25 c 0,-1.65 -1.35,-3 -3,-3 -1.65,0 -3,1.35 -3,3 v 21 h 6 z"
       id="path6984"
       inkscape:connector-curvature="0" /><path
       style="fill:#f9da49"
       d="m 26.5,25 c 0,-1.65 -1.35,-3 -3,-3 -1.65,0 -3,1.35 -3,3 v 21 h 6 z"
       id="path6986"
       inkscape:connector-curvature="0" /><path
       style="fill:#eeaf4b"
       d="m 32.5,25 c 0,-1.65 -1.35,-3 -3,-3 -1.65,0 -3,1.35 -3,3 v 21 h 6 z"
       id="path6988"
       inkscape:connector-curvature="0" /><path
       style="fill:#f9da49"
       d="m 38.5,25 c 0,-1.65 -1.35,-3 -3,-3 -1.65,0 -3,1.35 -3,3 v 21 h 6 z"
       id="path6990"
       inkscape:connector-curvature="0" /></g><g
     id="g6994" /><g
     id="g6996" /><g
     id="g6998" /><g
     id="g7000" /><g
     id="g7002" /><g
     id="g7004" /><g
     id="g7006" /><g
     id="g7008" /><g
     id="g7010" /><g
     id="g7012" /><g
     id="g7014" /><g
     id="g7016" /><g
     id="g7018" /><g
     id="g7020" /><g
     id="g7022" /></svg>