<?xml version="1.0" encoding="UTF-8" standalone="no"?>
<!-- Generator: Adobe Illustrator 19.0.0, SVG Export Plug-In . SVG Version: 6.00 Build 0)  -->

<svg
   xmlns:osb="http://www.openswatchbook.org/uri/2009/osb"
   xmlns:dc="http://purl.org/dc/elements/1.1/"
   xmlns:cc="http://creativecommons.org/ns#"
   xmlns:rdf="http://www.w3.org/1999/02/22-rdf-syntax-ns#"
   xmlns:svg="http://www.w3.org/2000/svg"
   xmlns="http://www.w3.org/2000/svg"
   xmlns:sodipodi="http://sodipodi.sourceforge.net/DTD/sodipodi-0.dtd"
   xmlns:inkscape="http://www.inkscape.org/namespaces/inkscape"
   version="1.1"
   id="Capa_1"
   x="0px"
   y="0px"
   viewBox="0 0 38.351013 54.757"
   xml:space="preserve"
   sodipodi:docname="kaljakartta_map_arrow.svg"
   inkscape:version="0.92.2 (5c3e80d, 2017-08-06)"
   width="38.351013"
   height="54.757"><metadata
     id="metadata3868"><rdf:RDF><cc:Work
         rdf:about=""><dc:format>image/svg+xml</dc:format><dc:type
           rdf:resource="http://purl.org/dc/dcmitype/StillImage" /><dc:title></dc:title></cc:Work></rdf:RDF></metadata><defs
     id="defs3866"><linearGradient
       id="linearGradient4717"
       osb:paint="solid"><stop
         style="stop-color:#000000;stop-opacity:1;"
         offset="0"
         id="stop4715" /></linearGradient></defs><sodipodi:namedview
     pagecolor="#ffffff"
     bordercolor="#666666"
     borderopacity="1"
     objecttolerance="10"
     gridtolerance="10"
     guidetolerance="10"
     inkscape:pageopacity="0"
     inkscape:pageshadow="2"
     inkscape:window-width="1920"
     inkscape:window-height="1027"
     id="namedview3864"
     showgrid="false"
     inkscape:zoom="8.6199025"
     inkscape:cx="-23.131805"
     inkscape:cy="15.859032"
     inkscape:window-x="-8"
     inkscape:window-y="-8"
     inkscape:window-maximized="1"
     inkscape:current-layer="Capa_1"
     inkscape:pagecheckerboard="false"
     fit-margin-top="0"
     fit-margin-left="0"
     fit-margin-right="0"
     fit-margin-bottom="0" /><g
     id="g3831"
     style="fill:#000000;fill-opacity:1"
     transform="translate(-8.2025522)"><path
       d="M 40.94,5.617 C 37.318,1.995 32.502,0 27.38,0 22.257,0 17.442,1.995 13.82,5.617 7.117,12.319 6.284,24.929 12.016,32.569 L 27.38,54.757 42.721,32.6 C 48.476,24.929 47.643,12.319 40.94,5.617 Z M 41.099,31.431 27.38,51.243 13.639,31.4 C 8.44,24.468 9.185,13.08 15.235,7.031 18.479,3.787 22.792,2 27.38,2 c 4.588,0 8.901,1.787 12.146,5.031 6.05,6.049 6.795,17.437 1.573,24.4 z"
       id="path3829"
       style="fill:#000000;fill-opacity:1"
       inkscape:connector-curvature="0" /></g><g
     id="g3833"
     transform="translate(-8.2025522)" /><g
     id="g3835"
     transform="translate(-8.2025522)" /><g
     id="g3837"
     transform="translate(-8.2025522)" /><g
     id="g3839"
     transform="translate(-8.2025522)" /><g
     id="g3841"
     transform="translate(-8.2025522)" /><g
     id="g3843"
     transform="translate(-8.2025522)" /><g
     id="g3845"
     transform="translate(-8.2025522)" /><g
     id="g3847"
     transform="translate(-8.2025522)" /><g
     id="g3849"
     transform="translate(-8.2025522)" /><g
     id="g3851"
     transform="translate(-8.2025522)" /><g
     id="g3853"
     transform="translate(-8.2025522)" /><g
     id="g3855"
     transform="translate(-8.2025522)" /><g
     id="g3857"
     transform="translate(-8.2025522)" /><g
     id="g3859"
     transform="translate(-8.2025522)" /><g
     id="g3861"
     transform="translate(-8.2025522)" /><circle
     id="path3884"
     cy="19.289375"
     cx="19.196093"
     r="15.270502"
     style="fill:#404040;fill-opacity:1;stroke:#000000;stroke-width:1.75199997;stroke-miterlimit:4;stroke-dasharray:none;stroke-opacity:1" /><path
     style="fill:#b40a0a;fill-opacity:1;stroke:#b40a0a;stroke-width:0.244;stroke-miterlimit:4;stroke-dasharray:none;stroke-opacity:1"
     d="M 18.985717,50.886462 C 18.074641,49.659481 4.6418098,30.147682 4.3278348,29.595218 c -1.153581,-2.029808 -1.949452,-4.664655 -2.221525,-7.35468 -0.12404,-1.2264 -0.05736,-3.869374 0.127431,-5.050692 0.439129,-2.807286 1.506908,-5.673001 2.873152,-7.7109965 C 8.8902328,3.835325 15.831089,1.0215213 22.591587,2.3906027 27.975236,3.4808558 32.54513,7.137162 34.64084,12.031037 c 1.076782,2.514488 1.574497,4.796274 1.653516,7.580586 0.07418,2.613828 -0.21084,4.666878 -0.967752,6.970873 -0.806606,2.455267 -0.756458,2.375636 -8.84808,14.049982 l -7.293342,10.52261 z m 1.71188,-15.492287 c 3.754974,-0.372022 7.032939,-1.879179 9.703945,-4.461722 1.409227,-1.362553 2.322055,-2.583661 3.173976,-4.245889 1.221355,-2.38305 1.769533,-4.676994 1.769533,-7.404905 0,-1.566227 -0.137733,-2.684114 -0.50731,-4.117474 C 33.668747,10.630372 30.491259,6.7838491 26.211012,4.7210554 19.982817,1.7194809 12.550964,3.0039325 7.6892588,7.922181 c -3.382202,3.421539 -5.072615,8.198639 -4.589856,12.970916 0.572208,5.656516 4.034993,10.565083 9.1892122,13.025893 2.557713,1.221144 5.595018,1.753977 8.408982,1.475185 z"
     id="path6173"
     inkscape:connector-curvature="0" /><g
     transform="matrix(0.46521527,0,0,0.46521527,8.1109088,6.6083929)"
     id="g6246"><path
       inkscape:connector-curvature="0"
       style="fill:#e6e6e6"
       d="m 44.5,20.232 h -6 v 4 h 4 c 1.1,0 2,0.9 2,2 v 10 c 0,1.1 -0.9,2 -2,2 h -4 v 4 h 6 c 2.2,0 4,-1.8 4,-4 v -14 c 0,-2.2 -1.8,-4 -4,-4 z"
       id="path6230" /><path
       inkscape:connector-curvature="0"
       style="fill:#e6e6e6"
       d="M 32.5,4 C 31.117,4 29.847,4.472 28.833,5.258 27.837,3.325 25.825,2 23.5,2 22.651,2 21.845,2.178 21.113,2.496 19.924,0.979 18.078,0 16,0 12.875,0 10.268,2.205 9.644,5.144 9.275,5.057 8.895,5 8.5,5 c -2.761,0 -5,2.239 -5,5 v 8 c 0,1.1 0.9,2 2,2 h 1 c 1.1,0 2,-0.9 2,-2 V 16.404 C 9.106,16.775 9.809,17 10.568,17 h 1.967 c 1.275,0 2.402,-0.615 3.136,-1.551 1.089,1.539 2.879,2.551 4.897,2.551 3.3,0 6,-2.7 6,-6 h 11.583 c 0.222,-0.626 0.349,-1.298 0.349,-2 0,-3.314 -2.686,-6 -6,-6 z"
       id="path6232" /><path
       inkscape:connector-curvature="0"
       style="fill:#f4c44e"
       d="m 26.568,12 c 0,3.3 -2.7,6 -6,6 C 18.55,18 16.76,16.988 15.671,15.449 14.937,16.385 13.81,17 12.535,17 H 10.568 C 9.81,17 9.106,16.775 8.5,16.404 V 47 c 0,2.75 2.25,5 5,5 h 20 c 2.75,0 5,-2.25 5,-5 V 12 Z"
       id="path6234" /><path
       inkscape:connector-curvature="0"
       style="fill:#f9da49"
       d="m 14.5,25 c 0,-1.65 -1.35,-3 -3,-3 -1.65,0 -3,1.35 -3,3 v 21 h 6 z"
       id="path6236" /><path
       inkscape:connector-curvature="0"
       style="fill:#eeaf4b"
       d="m 20.5,25 c 0,-1.65 -1.35,-3 -3,-3 -1.65,0 -3,1.35 -3,3 v 21 h 6 z"
       id="path6238" /><path
       inkscape:connector-curvature="0"
       style="fill:#f9da49"
       d="m 26.5,25 c 0,-1.65 -1.35,-3 -3,-3 -1.65,0 -3,1.35 -3,3 v 21 h 6 z"
       id="path6240" /><path
       inkscape:connector-curvature="0"
       style="fill:#eeaf4b"
       d="m 32.5,25 c 0,-1.65 -1.35,-3 -3,-3 -1.65,0 -3,1.35 -3,3 v 21 h 6 z"
       id="path6242" /><path
       inkscape:connector-curvature="0"
       style="fill:#f9da49"
       d="m 38.5,25 c 0,-1.65 -1.35,-3 -3,-3 -1.65,0 -3,1.35 -3,3 v 21 h 6 z"
       id="path6244" /></g><path
     style="fill:#404040;fill-opacity:0;stroke:#404040;stroke-width:0;stroke-miterlimit:4;stroke-dasharray:none;stroke-opacity:0"
     d="M 17.174775,33.504568 C 13.224713,32.899011 9.8200538,30.817106 7.4857848,27.579875 6.8609308,26.71331 5.9161718,24.849641 5.5710068,23.802708 4.3939898,20.232656 4.6563318,16.406252 6.3128838,12.981993 8.8364988,7.7654273 14.583618,4.4734965 20.276544,4.9836545 c 4.258452,0.3816109 7.863882,2.3603179 10.411132,5.7137635 2.139272,2.816344 3.177806,6.626054 2.771984,10.168629 -0.459138,4.008005 -2.61874,7.720561 -5.834429,10.029923 -1.754065,1.259691 -3.38985,1.981181 -5.564493,2.454314 -1.190467,0.259008 -3.688344,0.337883 -4.885963,0.154284 z m 7.551999,-2.927603 c 0.524072,-0.278881 0.886205,-0.65878 1.12127,-1.176279 0.164539,-0.362237 0.189958,-0.570699 0.217552,-1.784194 l 0.03125,-1.374034 1.570843,-0.0018 c 1.757441,-0.002 1.990096,-0.05649 2.489543,-0.582913 0.520691,-0.54881 0.516857,-0.51524 0.516857,-4.524931 v -3.638343 l -0.225588,-0.44487 C 30.195423,16.550519 29.743897,16.185697 29.232485,16.06709 29.055341,16.02601 28.273631,15.99151 27.495354,15.99043 l -1.41505,-0.002 v -1.873061 c 0,-1.030184 -0.02379,-1.896853 -0.05287,-1.925932 -0.02908,-0.02908 -0.05691,-0.432061 -0.06184,-0.895515 -0.0094,-0.880665 -0.101617,-1.173437 -0.56877,-1.8052958 C 25.124528,9.120382 24.440275,8.7027389 23.873592,8.5589503 23.203772,8.3889919 22.627472,8.4555385 21.999025,8.7754106 L 21.527531,9.0153955 21.404483,8.8329472 C 20.727197,7.8287066 19.524049,7.3442032 18.385692,7.617291 L 17.972873,7.716325 17.522313,7.3493389 C 16.394667,6.4308582 14.841426,6.3799547 13.739169,7.2253556 13.295444,7.5656809 12.821777,8.1971862 12.696427,8.6155693 l -0.09532,0.3181631 h -0.464594 c -0.89975,0 -1.654532,0.4343578 -2.114527,1.2168576 l -0.2250102,0.382764 -0.02509,2.403058 -0.02509,2.403057 0.2834872,0.283486 c 0.270796,0.270797 0.309925,0.283487 0.874115,0.283487 0.561569,0 0.604265,-0.01364 0.86774,-0.27711 l 0.27711,-0.277111 0.02231,6.901185 0.02231,6.901184 0.254748,0.449135 c 0.309717,0.546046 0.703168,0.877607 1.279655,1.078363 0.406597,0.141594 0.762084,0.150044 5.561354,0.132201 l 5.126992,-0.01906 z"
     id="path6330"
     inkscape:connector-curvature="0" /><path
     style="opacity:1;fill:#000000;fill-opacity:0;stroke:#404040;stroke-width:0.002;stroke-miterlimit:4;stroke-dasharray:none;stroke-opacity:0"
     d="M 17.183865,33.501109 C 13.083507,32.902374 9.4320498,30.576009 7.1929708,27.135851 2.8859138,20.518416 4.6709218,11.783498 11.232824,7.3668781 16.025732,4.1409145 22.369979,4.140823 27.164601,7.3666483 c 6.074361,4.0868347 8.124392,11.9947887 4.78569,18.4607087 -2.177508,4.217088 -6.193373,7.060226 -10.847466,7.679752 -1.074501,0.143031 -2.917661,0.140209 -3.91896,-0.006 z m 7.488195,-2.889003 c 0.541411,-0.289304 0.899221,-0.647948 1.14247,-1.145132 0.210806,-0.430872 0.226013,-0.538546 0.259876,-1.840106 l 0.03597,-1.382456 1.568622,-0.0018 c 1.346208,-0.0016 1.615796,-0.02323 1.901327,-0.152922 0.424073,-0.19262 0.892038,-0.737563 1.014797,-1.181729 0.06767,-0.244825 0.08838,-1.396641 0.07122,-3.961154 l -0.02419,-3.61595 -0.248264,-0.401441 c -0.15369,-0.248515 -0.401152,-0.496014 -0.64961,-0.649704 l -0.401346,-0.248264 -1.626774,-0.02793 -1.626775,-0.02793 v -1.865642 c 0,-1.026104 -0.02563,-1.891273 -0.05695,-1.922597 -0.03132,-0.03133 -0.05901,-0.434306 -0.06152,-0.895515 -0.0041,-0.753207 -0.02733,-0.88031 -0.228162,-1.24872 C 25.463275,9.5304474 25.319926,9.3641648 24.844771,9.0014712 24.044743,8.3907958 22.9392,8.3034536 22.008116,8.7773644 L 21.536621,9.0173493 21.413573,8.834901 C 20.736288,7.8306604 19.533139,7.346157 18.394782,7.6192448 l -0.412819,0.099034 -0.45056,-0.3669861 C 16.065024,6.1569098 13.925507,6.4848488 12.98963,8.0474421 12.845655,8.28783 12.703225,8.5860253 12.673117,8.7100986 c -0.05178,0.2133859 -0.08009,0.2255876 -0.523426,0.2255876 -0.257777,0 -0.639328,0.058144 -0.847891,0.1292086 -0.512002,0.1744566 -1.107467,0.7160352 -1.3426992,1.2211922 -0.1876,0.402866 -0.192472,0.471913 -0.193253,2.738888 l -8.01e-4,2.325604 0.2878372,0.287838 c 0.285002,0.285002 0.293821,0.287535 0.895095,0.257173 0.634525,-0.03204 0.888783,-0.15971 1.036411,-0.520401 0.03693,-0.09023 0.06949,2.942744 0.07235,6.739954 l 0.0052,6.904019 0.266604,0.511907 c 0.310813,0.596794 0.702097,0.941574 1.308815,1.153263 0.406951,0.141989 0.757903,0.150331 5.561355,0.132201 l 5.126992,-0.01935 z"
     id="path6342"
     inkscape:connector-curvature="0" /></svg>