<?xml version="1.0" encoding="utf-8"?>
<!-- Generator: Adobe Illustrator 16.0.0, SVG Export Plug-In . SVG Version: 6.00 Build 0)  -->
<!DOCTYPE svg PUBLIC "-//W3C//DTD SVG 1.1//EN" "http://www.w3.org/Graphics/SVG/1.1/DTD/svg11.dtd">
<svg version="1.1"
	 id="Capa_1" xmlns:osb="http://www.openswatchbook.org/uri/2009/osb" xmlns:dc="http://purl.org/dc/elements/1.1/" xmlns:cc="http://creativecommons.org/ns#" xmlns:rdf="http://www.w3.org/1999/02/22-rdf-syntax-ns#" xmlns:svg="http://www.w3.org/2000/svg" xmlns:sodipodi="http://sodipodi.sourceforge.net/DTD/sodipodi-0.dtd" xmlns:inkscape="http://www.inkscape.org/namespaces/inkscape" inkscape:version="0.92.2 (5c3e80d, 2017-08-06)" sodipodi:docname="kaljakartta_map_arrow.svg"
	 xmlns="http://www.w3.org/2000/svg" xmlns:xlink="http://www.w3.org/1999/xlink" x="0px" y="0px" width="21.825px"
	 height="31.163px" viewBox="8.263 11.798 21.825 31.163" enable-background="new 8.263 11.798 21.825 31.163" xml:space="preserve"
	>
<sodipodi:namedview  fit-margin-left="0" fit-margin-top="0" inkscape:cy="15.859032" inkscape:cx="-23.131805" inkscape:zoom="8.6199025" showgrid="false" guidetolerance="10" gridtolerance="10" objecttolerance="10" borderopacity="1" bordercolor="#666666" pagecolor="#ffffff" id="namedview3864" fit-margin-bottom="0" fit-margin-right="0" inkscape:pagecheckerboard="false" inkscape:current-layer="Capa_1" inkscape:window-maximized="1" inkscape:window-y="-8" inkscape:window-x="-8" inkscape:window-height="1027" inkscape:window-width="1920" inkscape:pageshadow="2" inkscape:pageopacity="0">
	</sodipodi:namedview>
<g id="g3831" transform="translate(-8.2025522)">
	<path id="path3829" inkscape:connector-curvature="0" d="M35.096,14.994c-2.061-2.061-4.802-3.196-7.717-3.196
		s-5.656,1.135-7.717,3.196c-3.814,3.814-4.289,10.99-1.027,15.338l8.744,12.628l8.73-12.609
		C39.384,25.984,38.91,18.808,35.096,14.994z M35.187,29.685l-7.808,11.274l-7.82-11.292c-2.958-3.945-2.534-10.426,0.909-13.869
		c1.846-1.846,4.301-2.863,6.912-2.863s5.065,1.017,6.912,2.863C37.735,19.241,38.158,25.722,35.187,29.685z"/>
</g>
<g id="g3833" transform="translate(-8.2025522)">
</g>
<g id="g3835" transform="translate(-8.2025522)">
</g>
<g id="g3837" transform="translate(-8.2025522)">
</g>
<g id="g3839" transform="translate(-8.2025522)">
</g>
<g id="g3841" transform="translate(-8.2025522)">
</g>
<g id="g3843" transform="translate(-8.2025522)">
</g>
<g id="g3845" transform="translate(-8.2025522)">
</g>
<g id="g3847" transform="translate(-8.2025522)">
</g>
<g id="g3849" transform="translate(-8.2025522)">
</g>
<g id="g3851" transform="translate(-8.2025522)">
</g>
<g id="g3853" transform="translate(-8.2025522)">
</g>
<g id="g3855" transform="translate(-8.2025522)">
</g>
<g id="g3857" transform="translate(-8.2025522)">
</g>
<g id="g3859" transform="translate(-8.2025522)">
</g>
<g id="g3861" transform="translate(-8.2025522)">
</g>
<circle id="path3884" fill="#404040" stroke="#000000" stroke-width="1.752" cx="19.187" cy="22.775" r="8.69"/>
<path id="path6173" inkscape:connector-curvature="0" fill="#B40A0A" stroke="#B40A0A" stroke-width="0.244" d="M19.068,40.757
	c-0.519-0.698-8.164-11.802-8.342-12.118c-0.656-1.154-1.109-2.654-1.264-4.185c-0.071-0.698-0.033-2.202,0.073-2.875
	c0.25-1.597,0.857-3.228,1.635-4.388c2.153-3.212,6.103-4.813,9.951-4.034c3.064,0.621,5.664,2.702,6.856,5.487
	c0.613,1.431,0.897,2.729,0.941,4.314c0.043,1.488-0.12,2.656-0.55,3.967c-0.46,1.397-0.432,1.352-5.036,7.996l-4.151,5.989
	L19.068,40.757z M20.043,31.94c2.137-0.211,4.002-1.069,5.521-2.539c0.802-0.775,1.321-1.47,1.806-2.416
	c0.696-1.356,1.007-2.662,1.007-4.214c0-0.891-0.077-1.527-0.288-2.343c-0.666-2.581-2.474-4.77-4.909-5.943
	c-3.544-1.709-7.774-0.978-10.541,1.821c-1.924,1.947-2.886,4.666-2.612,7.381c0.326,3.219,2.297,6.013,5.23,7.413
	C16.712,31.795,18.44,32.099,20.043,31.94z"/>
<g id="g6246" transform="matrix(0.46521527,0,0,0.46521527,8.1109088,6.6083929)">
	<path id="path6230" inkscape:connector-curvature="0" fill="#E6E6E6" d="M35.573,30.752h-3.415v2.278h2.278
		c0.625,0,1.138,0.512,1.138,1.138v5.691c0,0.625-0.512,1.138-1.138,1.138h-2.278v2.277h3.415c1.251,0,2.276-1.025,2.276-2.277
		v-7.966C37.848,31.776,36.824,30.752,35.573,30.752z"/>
	<path id="path6232" inkscape:connector-curvature="0" fill="#E6E6E6" d="M28.744,21.515c-0.787,0-1.509,0.269-2.086,0.716
		c-0.567-1.101-1.711-1.854-3.034-1.854c-0.485,0-0.944,0.1-1.359,0.281c-0.677-0.864-1.727-1.421-2.909-1.421
		c-1.779,0-3.263,1.255-3.618,2.928c-0.211-0.051-0.426-0.082-0.651-0.082c-1.57,0-2.846,1.273-2.846,2.845v4.552
		c0,0.628,0.513,1.139,1.14,1.139h0.567c0.626,0,1.14-0.511,1.14-1.139v-0.907c0.346,0.21,0.745,0.339,1.177,0.339h1.119
		c0.726,0,1.366-0.35,1.785-0.884c0.62,0.876,1.639,1.451,2.787,1.451c1.879,0,3.413-1.537,3.413-3.414h6.591
		c0.128-0.356,0.199-0.739,0.199-1.138C32.157,23.044,30.631,21.515,28.744,21.515z"/>
	<path id="path6234" inkscape:connector-curvature="0" fill="#F4C44E" d="M25.367,26.067c0,1.878-1.534,3.414-3.413,3.414
		c-1.147,0-2.166-0.575-2.787-1.451c-0.419,0.533-1.059,0.884-1.785,0.884h-1.119c-0.431,0-0.83-0.129-1.177-0.339V45.99
		c0,1.562,1.281,2.844,2.844,2.844h11.383c1.566,0,2.844-1.283,2.844-2.844V26.067H25.367z"/>
	<path id="path6236" inkscape:connector-curvature="0" fill="#F9DA49" d="M18.5,33.465c0-0.938-0.768-1.707-1.708-1.707
		c-0.939,0-1.707,0.768-1.707,1.707v11.952H18.5V33.465z"/>
	<path id="path6238" inkscape:connector-curvature="0" fill="#EEAF4B" d="M21.917,33.465c0-0.938-0.771-1.707-1.709-1.707
		c-0.939,0-1.708,0.768-1.708,1.707v11.952h3.417V33.465z"/>
	<path id="path6240" inkscape:connector-curvature="0" fill="#F9DA49" d="M25.331,33.465c0-0.938-0.769-1.707-1.708-1.707
		c-0.939,0-1.707,0.768-1.707,1.707v11.952h3.414V33.465z"/>
	<path id="path6242" inkscape:connector-curvature="0" fill="#EEAF4B" d="M28.744,33.465c0-0.938-0.768-1.707-1.707-1.707
		c-0.94,0-1.707,0.768-1.707,1.707v11.952h3.413V33.465z"/>
	<path id="path6244" inkscape:connector-curvature="0" fill="#F9DA49" d="M32.157,33.465c0-0.938-0.768-1.707-1.707-1.707
		c-0.936,0-1.707,0.768-1.707,1.707v11.952h3.413V33.465z"/>
</g>
<path id="path6330" inkscape:connector-curvature="0" fill="#404040" fill-opacity="0" d="M18.037,30.865
	c-2.248-0.344-4.186-1.529-5.514-3.371c-0.355-0.494-0.894-1.555-1.09-2.15c-0.67-2.031-0.521-4.209,0.422-6.157
	c1.436-2.969,4.707-4.843,7.947-4.553c2.423,0.218,4.476,1.344,5.924,3.252c1.218,1.603,1.81,3.771,1.578,5.787
	c-0.262,2.281-1.491,4.394-3.32,5.708c-0.998,0.716-1.929,1.127-3.167,1.397C20.14,30.923,18.719,30.969,18.037,30.865z
	 M22.335,29.2c0.299-0.159,0.504-0.377,0.639-0.671c0.094-0.206,0.107-0.324,0.123-1.015l0.018-0.782l0.895-0.001
	c1.001-0.001,1.133-0.032,1.416-0.332c0.297-0.312,0.294-0.293,0.294-2.575v-2.07L25.592,21.5c-0.145-0.284-0.4-0.492-0.692-0.559
	c-0.101-0.024-0.546-0.043-0.989-0.044l-0.805-0.001v-1.065c0-0.586-0.014-1.079-0.031-1.096c-0.015-0.017-0.032-0.246-0.034-0.51
	c-0.006-0.501-0.059-0.668-0.323-1.028c-0.156-0.209-0.546-0.447-0.867-0.529c-0.382-0.097-0.709-0.059-1.066,0.123l-0.269,0.137
	l-0.07-0.104c-0.385-0.571-1.07-0.847-1.718-0.691l-0.235,0.056l-0.256-0.208c-0.642-0.523-1.525-0.552-2.153-0.071
	c-0.252,0.193-0.522,0.553-0.593,0.791l-0.054,0.181H15.17c-0.513,0-0.941,0.248-1.204,0.692l-0.128,0.218l-0.014,1.368
	l-0.015,1.367l0.161,0.161c0.154,0.154,0.177,0.162,0.497,0.162c0.32,0,0.345-0.008,0.495-0.158l0.157-0.158l0.013,3.928
	l0.013,3.927l0.145,0.255c0.176,0.312,0.4,0.501,0.728,0.614c0.232,0.08,0.434,0.085,3.165,0.074l2.918-0.009L22.335,29.2z"/>
<path id="path6342" inkscape:connector-curvature="0" fill-opacity="0" stroke="#404040" stroke-width="0.002" stroke-opacity="0" d="
	M18.042,30.863c-2.333-0.341-4.411-1.665-5.686-3.622c-2.451-3.766-1.436-8.737,2.299-11.251c2.728-1.835,6.338-1.835,9.066,0
	c3.458,2.326,4.624,6.826,2.725,10.506c-1.239,2.4-3.525,4.019-6.173,4.371C19.661,30.948,18.612,30.946,18.042,30.863z
	 M22.303,29.218c0.309-0.164,0.513-0.368,0.65-0.651c0.12-0.245,0.128-0.307,0.147-1.047l0.021-0.787l0.893-0.001
	c0.766-0.001,0.919-0.014,1.082-0.086c0.24-0.11,0.507-0.42,0.576-0.672c0.039-0.14,0.051-0.795,0.042-2.255l-0.015-2.057
	l-0.141-0.229c-0.087-0.142-0.229-0.282-0.369-0.37l-0.23-0.142l-0.924-0.016l-0.927-0.016v-1.062c0-0.584-0.015-1.076-0.033-1.094
	c-0.018-0.018-0.032-0.248-0.035-0.509c-0.002-0.429-0.014-0.501-0.128-0.711c-0.159-0.292-0.241-0.387-0.513-0.593
	c-0.455-0.348-1.084-0.397-1.613-0.128l-0.269,0.137l-0.07-0.104c-0.386-0.571-1.07-0.847-1.718-0.691l-0.235,0.056l-0.256-0.208
	c-0.834-0.68-2.053-0.494-2.584,0.396c-0.083,0.137-0.164,0.306-0.181,0.377c-0.029,0.122-0.045,0.128-0.297,0.128
	c-0.146,0-0.364,0.033-0.482,0.074c-0.292,0.099-0.631,0.408-0.765,0.694c-0.106,0.23-0.109,0.269-0.109,1.559v1.324l0.163,0.164
	c0.163,0.163,0.167,0.164,0.51,0.147c0.361-0.019,0.505-0.091,0.59-0.297c0.021-0.051,0.04,1.675,0.041,3.836l0.003,3.929
	l0.152,0.291c0.176,0.34,0.399,0.536,0.745,0.657c0.231,0.08,0.431,0.086,3.165,0.074l2.917-0.011L22.303,29.218z"/>
</svg>
