<?xml version="1.0" encoding="UTF-8" standalone="no"?>
<!-- Generator: Adobe Illustrator 18.0.0, SVG Export Plug-In . SVG Version: 6.00 Build 0)  -->

<svg
   xmlns:dc="http://purl.org/dc/elements/1.1/"
   xmlns:cc="http://creativecommons.org/ns#"
   xmlns:rdf="http://www.w3.org/1999/02/22-rdf-syntax-ns#"
   xmlns:svg="http://www.w3.org/2000/svg"
   xmlns="http://www.w3.org/2000/svg"
   xmlns:sodipodi="http://sodipodi.sourceforge.net/DTD/sodipodi-0.dtd"
   xmlns:inkscape="http://www.inkscape.org/namespaces/inkscape"
   version="1.1"
   id="Capa_1"
   x="0px"
   y="0px"
   viewBox="0 0 52 52"
   style="enable-background:new 0 0 52 52;"
   xml:space="preserve"
   sodipodi:docname="fin.svg"
   inkscape:version="0.92.2 (5c3e80d, 2017-08-06)"><metadata
     id="metadata6460"><rdf:RDF><cc:Work
         rdf:about=""><dc:format>image/svg+xml</dc:format><dc:type
           rdf:resource="http://purl.org/dc/dcmitype/StillImage" /><dc:title></dc:title></cc:Work></rdf:RDF></metadata><defs
     id="defs6458" /><sodipodi:namedview
     pagecolor="#ffffff"
     bordercolor="#666666"
     borderopacity="1"
     objecttolerance="10"
     gridtolerance="10"
     guidetolerance="10"
     inkscape:pageopacity="0"
     inkscape:pageshadow="2"
     inkscape:window-width="1920"
     inkscape:window-height="1027"
     id="namedview6456"
     showgrid="false"
     inkscape:zoom="4"
     inkscape:cx="-44.755053"
     inkscape:cy="52.477339"
     inkscape:window-x="-8"
     inkscape:window-y="-8"
     inkscape:window-maximized="1"
     inkscape:current-layer="Capa_1" /><g
     id="g6423"><path
       style="fill:#E6E6E6;"
       d="M44.5,20.232h-6v4h4c1.1,0,2,0.9,2,2v10c0,1.1-0.9,2-2,2h-4v4h6c2.2,0,4-1.8,4-4v-14   C48.5,22.032,46.7,20.232,44.5,20.232z"
       id="path6407" /><path
       style="fill:#E6E6E6;"
       d="M32.5,4c-1.383,0-2.653,0.472-3.667,1.258C27.837,3.325,25.825,2,23.5,2   c-0.849,0-1.655,0.178-2.387,0.496C19.924,0.979,18.078,0,16,0c-3.125,0-5.732,2.205-6.356,5.144C9.275,5.057,8.895,5,8.5,5   c-2.761,0-5,2.239-5,5v8c0,1.1,0.9,2,2,2h1c1.1,0,2-0.9,2-2v-1.596C9.106,16.775,9.809,17,10.568,17h1.967   c1.275,0,2.402-0.615,3.136-1.551C16.76,16.988,18.55,18,20.568,18c3.3,0,6-2.7,6-6h11.583c0.222-0.626,0.349-1.298,0.349-2   C38.5,6.686,35.814,4,32.5,4z"
       id="path6409" /><path
       style="fill:#F4C44E;"
       d="M26.568,12c0,3.3-2.7,6-6,6c-2.018,0-3.808-1.012-4.897-2.551C14.937,16.385,13.81,17,12.535,17   h-1.967c-0.758,0-1.462-0.225-2.068-0.596V47c0,2.75,2.25,5,5,5h20c2.75,0,5-2.25,5-5V12H26.568z"
       id="path6411" /><path
       style="fill:#F9DA49;"
       d="M14.5,25c0-1.65-1.35-3-3-3s-3,1.35-3,3v21h6V25z"
       id="path6413" /><path
       style="fill:#EEAF4B;"
       d="M20.5,25c0-1.65-1.35-3-3-3s-3,1.35-3,3v21h6V25z"
       id="path6415" /><path
       style="fill:#F9DA49;"
       d="M26.5,25c0-1.65-1.35-3-3-3s-3,1.35-3,3v21h6V25z"
       id="path6417" /><path
       style="fill:#EEAF4B;"
       d="M32.5,25c0-1.65-1.35-3-3-3s-3,1.35-3,3v21h6V25z"
       id="path6419" /><path
       style="fill:#F9DA49;"
       d="M38.5,25c0-1.65-1.35-3-3-3s-3,1.35-3,3v21h6V25z"
       id="path6421" /></g><g
     id="g6425" /><g
     id="g6427" /><g
     id="g6429" /><g
     id="g6431" /><g
     id="g6433" /><g
     id="g6435" /><g
     id="g6437" /><g
     id="g6439" /><g
     id="g6441" /><g
     id="g6443" /><g
     id="g6445" /><g
     id="g6447" /><g
     id="g6449" /><g
     id="g6451" /><g
     id="g6453" /><path
     inkscape:connector-curvature="0"
     style="fill:#f5f5f5;stroke-width:0.05856479"
     d="M 36.249911,41.522641 H 10.756073 c -1.2402848,0 -2.2456706,-1.005387 -2.2456706,-2.245671 V 24.122865 c 0,-1.240232 1.0053858,-2.245671 2.2456706,-2.245671 h 25.493838 c 1.240223,0 2.245669,1.005386 2.245669,2.245671 v 15.154166 c 0,1.240223 -1.005386,2.24561 -2.245669,2.24561 z"
     id="path6503" /><polygon
     transform="matrix(0.05856479,0,0,0.05856479,8.5104024,16.707328)"
     style="fill:#41479b"
     points="211.862,88.276 158.897,88.276 158.897,229.517 0,229.517 0,282.483 158.897,282.483 158.897,423.724 211.862,423.724 211.862,282.483 512,282.483 512,229.517 211.862,229.517 "
     id="polygon6505-7" /></svg>