<?xml version="1.0" encoding="UTF-8" standalone="no"?>
<!-- Generator: Adobe Illustrator 18.0.0, SVG Export Plug-In . SVG Version: 6.00 Build 0)  -->

<svg
   xmlns:dc="http://purl.org/dc/elements/1.1/"
   xmlns:cc="http://creativecommons.org/ns#"
   xmlns:rdf="http://www.w3.org/1999/02/22-rdf-syntax-ns#"
   xmlns:svg="http://www.w3.org/2000/svg"
   xmlns="http://www.w3.org/2000/svg"
   xmlns:sodipodi="http://sodipodi.sourceforge.net/DTD/sodipodi-0.dtd"
   xmlns:inkscape="http://www.inkscape.org/namespaces/inkscape"
   version="1.1"
   id="Capa_1"
   x="0px"
   y="0px"
   viewBox="0 0 52 52"
   style="enable-background:new 0 0 52 52;"
   xml:space="preserve"
   sodipodi:docname="fin_pint.svg"
   inkscape:version="0.92.2 (5c3e80d, 2017-08-06)"><metadata
     id="metadata6460"><rdf:RDF><cc:Work
         rdf:about=""><dc:format>image/svg+xml</dc:format><dc:type
           rdf:resource="http://purl.org/dc/dcmitype/StillImage" /><dc:title></dc:title></cc:Work></rdf:RDF></metadata><defs
     id="defs6458" /><sodipodi:namedview
     pagecolor="#ffffff"
     bordercolor="#666666"
     borderopacity="1"
     objecttolerance="10"
     gridtolerance="10"
     guidetolerance="10"
     inkscape:pageopacity="0"
     inkscape:pageshadow="2"
     inkscape:window-width="1920"
     inkscape:window-height="1027"
     id="namedview6456"
     showgrid="false"
     inkscape:zoom="8"
     inkscape:cx="-16.425218"
     inkscape:cy="33.779468"
     inkscape:window-x="-8"
     inkscape:window-y="-8"
     inkscape:window-maximized="1"
     inkscape:current-layer="layer1"
     inkscape:lockguides="true" /><g
     id="g6425" /><g
     id="g6427" /><g
     id="g6429" /><g
     id="g6431" /><g
     id="g6433" /><g
     id="g6435" /><g
     id="g6437" /><g
     id="g6439" /><g
     id="g6441" /><g
     id="g6443" /><g
     id="g6445" /><g
     id="g6447" /><g
     id="g6449" /><g
     id="g6451" /><g
     id="g6453" /><g
     id="g6423"><path
       style="fill:#E6E6E6;"
       d="M44.5,20.232h-6v4h4c1.1,0,2,0.9,2,2v10c0,1.1-0.9,2-2,2h-4v4h6c2.2,0,4-1.8,4-4v-14   C48.5,22.032,46.7,20.232,44.5,20.232z"
       id="path6407" /><path
       style="fill:#F4C44E;"
       d="M26.568,12c0,3.3-2.7,6-6,6c-2.018,0-3.808-1.012-4.897-2.551C14.937,16.385,13.81,17,12.535,17   h-1.967c-0.758,0-1.462-0.225-2.068-0.596V47c0,2.75,2.25,5,5,5h20c2.75,0,5-2.25,5-5V12H26.568z"
       id="path6411" /><path
       style="fill:#F9DA49;"
       d="M14.5,25c0-1.65-1.35-3-3-3s-3,1.35-3,3v21h6V25z"
       id="path6413" /><path
       style="fill:#EEAF4B;"
       d="M20.5,25c0-1.65-1.35-3-3-3s-3,1.35-3,3v21h6V25z"
       id="path6415" /><path
       style="fill:#F9DA49;"
       d="M26.5,25c0-1.65-1.35-3-3-3s-3,1.35-3,3v21h6V25z"
       id="path6417" /><path
       style="fill:#EEAF4B;"
       d="M32.5,25c0-1.65-1.35-3-3-3s-3,1.35-3,3v21h6V25z"
       id="path6419" /><path
       style="fill:#F9DA49;"
       d="M38.5,25c0-1.65-1.35-3-3-3s-3,1.35-3,3v21h6V25z"
       id="path6421" /><path
       style="fill:#E6E6E6;"
       d="M32.5,4c-1.383,0-2.653,0.472-3.667,1.258C27.837,3.325,25.825,2,23.5,2   c-0.849,0-1.655,0.178-2.387,0.496C19.924,0.979,18.078,0,16,0c-3.125,0-5.732,2.205-6.356,5.144C9.275,5.057,8.895,5,8.5,5   c-2.761,0-5,2.239-5,5v8c0,1.1,0.9,2,2,2h1c1.1,0,2-0.9,2-2v-1.596C9.106,16.775,9.809,17,10.568,17h1.967   c1.275,0,2.402-0.615,3.136-1.551C16.76,16.988,18.55,18,20.568,18c3.3,0,6-2.7,6-6h11.583c0.222-0.626,0.349-1.298,0.349-2   C38.5,6.686,35.814,4,32.5,4z"
       id="path6409" /></g><path
     inkscape:connector-curvature="0"
     style="fill:#41479b;stroke-width:0.08929124"
     d="M 38.460918,48.572617 V 9.7032604 c 0,-1.8910123 -1.532862,-3.4238766 -3.423876,-3.4238766 H 11.932138 c -1.890921,0 -3.4238748,1.5328645 -3.4238748,3.4238766 V 48.572617 c 0,1.89092 1.5328648,3.423871 3.4238748,3.423871 h 23.104904 c 1.891014,0 3.423876,-1.532862 3.423876,-3.423871 z"
     id="path6650" /><path
     inkscape:connector-curvature="0"
     style="fill:#f5f5f5;stroke-width:0.08929124"
     d="m 35.602977,51.94899 c 1.621439,-0.269842 2.857943,-1.678407 2.857943,-3.376462 V 47.68167 L 28.893632,33.078982 h 9.567199 V 25.196713 H 28.893544 L 38.460831,10.594022 V 9.7031696 c 0,-1.698053 -1.236415,-3.1066217 -2.857946,-3.3764596 L 27.425597,18.807658 V 6.279296 H 19.543321 V 18.807658 L 11.366212,6.3267098 C 9.7447734,6.5965479 8.5082643,8.0051164 8.5082643,9.7031696 V 10.594022 L 18.075555,25.196714 H 8.5082643 v 7.882268 H 18.075555 L 8.5082643,47.68167 v 0.890861 c 0,1.698052 1.236417,3.106617 2.8579477,3.37646 l 8.177285,-12.480956 v 12.528366 h 7.882279 V 39.468035 Z"
     id="path6652" /><g
     transform="matrix(0,0.08929124,-0.08929124,0,46.343152,6.2793419)"
     id="g6664"><polygon
       style="fill:#ff4b55"
       points="229.517,423.724 282.483,423.724 282.483,282.483 512,282.483 512,229.517 282.483,229.517 282.483,88.276 229.517,88.276 229.517,229.517 0,229.517 0,282.483 229.517,282.483 "
       id="polygon6654" /><path
       inkscape:connector-curvature="0"
       style="fill:#ff4b55"
       d="M 24.793,421.252 211.376,300.138 H 178.948 L 9.224,410.31 c 4.153,4.847 9.49,8.645 15.569,10.942 z"
       id="path6656" /><path
       inkscape:connector-curvature="0"
       style="fill:#ff4b55"
       d="M 346.388,300.138 H 313.96 l 180.716,117.305 c 5.057,-3.321 9.277,-7.807 12.287,-13.075 z"
       id="path6658" /><path
       inkscape:connector-curvature="0"
       style="fill:#ff4b55"
       d="m 4.049,109.475 157.73,102.387 h 32.428 L 15.475,95.842 c -4.799,3.572 -8.726,8.242 -11.426,13.633 z"
       id="path6660" /><path
       inkscape:connector-curvature="0"
       style="fill:#ff4b55"
       d="M 332.566,211.862 502.601,101.487 c -4.199,-4.831 -9.578,-8.607 -15.699,-10.86 L 300.138,211.862 Z"
       id="path6662" /></g><g
     inkscape:groupmode="layer"
     id="layer1"
     inkscape:label="foam"><path
       inkscape:connector-curvature="0"
       style="fill:#f5f5f5;stroke-width:0.08937121"
       d="M 8.5052702,48.600658 V 9.6964832 c 0,-1.8927007 1.5342338,-3.4269382 3.4269438,-3.4269382 h 23.125515 c 1.892613,0 3.426938,1.5342375 3.426938,3.4269382 V 48.600658 c 0,1.892615 -1.534238,3.42694 -3.426938,3.42694 H 11.932127 c -1.892623,0 -3.4268568,-1.534234 -3.4268568,-3.42694 z"
       id="path6815" /><polygon
       transform="matrix(0,0.0893712,-0.0893712,0,46.373997,6.2695463)"
       style="fill:#41479b"
       points="211.862,282.483 512,282.483 512,229.517 211.862,229.517 211.862,88.276 158.897,88.276 158.897,229.517 0,229.517 0,282.483 158.897,282.483 158.897,423.724 211.862,423.724 "
       id="polygon6817" /><path
       inkscape:connector-curvature="0"
       style="fill:#e6e6e6;fill-opacity:1"
       d="m 32.502021,3.9953247 c -1.383001,0 -2.653001,0.4719998 -3.667001,1.2579999 C 27.839021,3.3203248 25.827021,1.995325 23.502021,1.995325 c -0.849,0 -1.655,0.1780002 -2.387,0.496 -1.189,-1.51700035 -3.035,-2.49600025 -5.113,-2.49600025 -3.125,0 -5.732,2.20500035 -6.3560036,5.14399995 -0.3689996,-0.087 -0.7489997,-0.1440001 -1.1439997,-0.1440001 -2.761,0 -5,2.2389993 -5,5.0000034 v 8 c 0,1.1 0.9,2 2,2 h 1 c 1.1,0 2,-0.9 2,-2 v -1.596 c 0.606,0.371 1.3089997,0.596 2.0680033,0.596 h 1.967 c 1.275,0 2.402,-0.615 3.136,-1.551 1.089,1.539 2.879,2.551 4.897,2.551 3.3,0 6,-2.7 6,-6 h 11.583 c 0.222,-0.626 0.349,-1.298 0.349,-2.0000005 0,-3.3140031 -2.686,-6.000003 -6,-6.0000028 z"
       id="path6409-5" /></g></svg>