<?xml version="1.0" encoding="iso-8859-1"?>
<!-- Generator: Adobe Illustrator 19.0.0, SVG Export Plug-In . SVG Version: 6.00 Build 0)  -->
<svg xmlns="http://www.w3.org/2000/svg" xmlns:xlink="http://www.w3.org/1999/xlink" version="1.1" id="Layer_1" x="0px" y="0px" viewBox="0 0 511.99 511.99" style="enable-background:new 0 0 511.99 511.99;" xml:space="preserve" width="512px" height="512px">
<g>
	<g>
		<path d="M229.328,191.996c-5.891,0-10.671,4.773-10.671,10.664v191.997c-0.001,5.89,4.78,10.671,10.671,10.671    S240,400.547,240,394.657V202.66C240,196.77,235.219,191.996,229.328,191.996z" fill="#606060"/>
	</g>
</g>
<g>
	<g>
		<path d="M304.007,191.996c-5.89,0-10.672,4.773-10.672,10.664v191.997c0,5.89,4.781,10.671,10.672,10.671    s10.656-4.781,10.656-10.671V202.66C314.663,196.77,309.897,191.996,304.007,191.996z" fill="#606060"/>
	</g>
</g>
<g>
	<g>
		<path d="M485.331,149.333h-85.326v-14.078c19.328-13.445,31.998-35.75,31.998-60.944C432.003,33.335,398.505,0,357.333,0    c-16.969,0-33.031,5.578-46.123,15.859C296.71,5.578,279.319,0,261.327,0c-16.828,0-32.828,4.719-46.718,13.71    C199.766,4.718,182.891,0,165.328,0c-22.077,0-43.374,7.632-60.389,21.57c-26.359,1.719-50.89,13.015-69.421,32.078    C16.05,73.663,5.331,100.069,5.331,127.998c0,39.398,21.484,73.874,53.328,92.35v270.307c0,11.781,9.562,21.335,21.343,21.335    h298.659c11.781,0,21.344-9.554,21.344-21.335v-63.999h85.326c11.781,0,21.328-9.547,21.328-21.328V170.661    C506.659,158.88,497.112,149.333,485.331,149.333z M378.661,490.655h-10.656c0-5.891-4.781-10.663-10.672-10.663    s-10.672,4.772-10.672,10.663h-21.328c0-5.891-4.781-10.663-10.67-10.663c-5.891,0-10.656,4.772-10.656,10.663h-21.344    c0-5.891-4.766-10.663-10.664-10.663c-5.891,0-10.672,4.772-10.672,10.663h-21.328c0-5.891-4.781-10.663-10.672-10.663    s-10.671,4.772-10.671,10.663h-21.328c0-5.891-4.781-10.663-10.672-10.663S176,484.764,176,490.655h-21.343    c0-5.891-4.765-10.663-10.656-10.663s-10.672,4.772-10.672,10.663h-21.328c0-5.891-4.781-10.663-10.671-10.663    c-5.89,0-10.672,4.772-10.672,10.663H80.002v-21.327h298.659V490.655z M378.661,447.991H80.002V229.753    c10.109,3.188,20.844,4.907,31.999,4.907c11.016,0,21.781-1.711,32-4.922v164.919c0,5.89,4.766,10.671,10.656,10.671    c5.891,0,10.671-4.781,10.671-10.671V220.355c15.516-8.961,28.781-21.82,38.266-37.687c6.25-2.742,12.156-6.125,17.655-10.125    c13.641,12.242,31.344,19.101,49.968,19.101c30.258,0,57.1-18.062,68.678-45.062c5.672,1.352,11.516,2.039,17.438,2.039    c7.406,0,14.578-1.086,21.328-3.101V447.991z M357.335,127.289c-6.953,0-13.734-1.312-20.125-3.906l-11.266-4.562l-3.062,11.773    c-6.061,23.382-27.295,39.718-51.662,39.718c-15.843,0-30.765-6.945-40.937-19.039l-7.125-8.468l-8.203,7.421    c-6.688,6.055-14.328,10.781-22.687,14.047l-3.594,1.406l-1.859,3.391c-15.031,27.304-43.687,44.265-74.812,44.265    c-47.063-0.003-85.343-38.284-85.343-85.338c0-46.444,36.358-83.913,82.749-85.288l3.875-0.117l2.906-2.578    c13.547-12.046,31-18.679,49.14-18.679c15.656,0,30.609,4.82,43.25,13.953l6.5,4.688l6.312-4.93    c11.484-8.968,25.297-13.71,39.937-13.71c15.977,0,31.305,5.828,43.18,16.414l7.578,6.758l7.123-7.234    c10.125-10.281,23.656-15.937,38.125-15.937c29.406,0,53.328,23.765,53.328,52.976S386.741,127.289,357.335,127.289z     M400.005,213.332h42.654v149.326h-42.654V213.332z M485.331,405.328h-85.326v-21.335h42.654c11.781,0,21.344-9.555,21.344-21.335    V213.332c0-11.781-9.562-21.335-21.344-21.335h-42.654v-21.335h85.326V405.328z" fill="#606060"/>
	</g>
</g>
<g>
</g>
<g>
</g>
<g>
</g>
<g>
</g>
<g>
</g>
<g>
</g>
<g>
</g>
<g>
</g>
<g>
</g>
<g>
</g>
<g>
</g>
<g>
</g>
<g>
</g>
<g>
</g>
<g>
</g>
</svg>
