<?xml version="1.0" encoding="iso-8859-1"?>
<!-- Generator: Adobe Illustrator 19.0.0, SVG Export Plug-In . SVG Version: 6.00 Build 0)  -->
<svg version="1.1" id="Layer_1" xmlns="http://www.w3.org/2000/svg" xmlns:xlink="http://www.w3.org/1999/xlink" x="0px" y="0px"
	 viewBox="0 0 511.986 511.986" style="enable-background:new 0 0 511.986 511.986;" xml:space="preserve">
<rect x="73.553" y="117.323" style="fill:#FFCE54;" width="308.66" height="338.66"/>
<path style="fill:#F5F7FA;" d="M389.869,19.327c-1.656-1.672-36.999-4-36.999-4l-31.655,8l-27.875-2.328L265.552,7.656
	l-29.327,8.671c0,0-31.671,7.672-32.671,7s-35.671-8-48.327-10.328s-25.671,11-25.671,11s-35.999,11-36.999,11.328
	s-31,13.671-33.328,14.328S24.23,84.654,24.23,84.654l-4.672,64.342l32.999,51.655l43.671,18.671l27.327,2.328l43.671-15
	l35.655-32.656l19.327-11l24,12.328l31.007,3.672l37.437-16l22.875-26.671c0,0,39.998-5.656,40.998-6.328s33.343-26,33.343-26
	s7.344-46.67,7-48.67C418.555,53.326,391.525,20.999,389.869,19.327z"/>
<rect x="70.213" y="459.333" style="fill:#CCD1D9;" width="316" height="38"/>
<polygon style="fill:#E6E9ED;" points="391.713,156.995 391.713,202.494 455.211,202.494 455.211,374.49 394.713,374.49 
	394.713,409.989 455.211,409.989 470.211,409.989 491.21,409.989 491.21,202.494 491.21,179.745 491.21,156.995 "/>
<path d="M229.334,405.333c5.891,0,10.672-4.781,10.672-10.688l0,0V202.651l0,0c0-5.875-4.781-10.656-10.672-10.656
	s-10.672,4.781-10.672,10.656l0,0v191.995l0,0C218.662,400.552,223.443,405.333,229.334,405.333z"/>
<path d="M303.996,405.333c5.906,0,10.656-4.781,10.656-10.688l0,0V202.651l0,0c0-5.875-4.75-10.656-10.656-10.656
	c-5.875,0-10.656,4.781-10.656,10.656l0,0v191.995l0,0C293.34,400.552,298.121,405.333,303.996,405.333z"/>
<path d="M485.335,149.34h-85.341v-14.093c19.343-13.438,31.998-35.749,31.998-60.936C431.992,33.343,398.494,0,357.338,0
	c-16.968,0-33.029,5.578-46.123,15.859C296.715,5.578,279.31,0,261.334,0c-16.828,0-32.828,4.719-46.719,13.718
	C199.772,4.718,182.897,0,165.336,0c-22.078,0-43.374,7.625-60.39,21.562c-26.358,1.719-50.889,13.031-69.42,32.093
	c-19.468,20-30.187,46.405-30.187,74.342c0,39.405,21.484,73.873,53.327,92.341v270.305c0,11.781,9.562,21.343,21.343,21.343H378.65
	c11.781,0,21.344-9.562,21.344-21.343v-63.998h85.341c11.781,0,21.312-9.531,21.312-21.312V170.652
	C506.646,158.87,497.116,149.34,485.335,149.34z M399.994,213.338h42.654v149.309h-42.654V213.338z M26.668,127.996
	c0-46.436,36.358-83.904,82.747-85.279l3.875-0.125l2.906-2.578c13.547-12.047,30.999-18.671,49.14-18.671
	c15.655,0,30.608,4.812,43.249,13.937l6.499,4.688l6.312-4.922c11.484-8.968,25.297-13.703,39.938-13.703
	c15.976,0,31.287,5.812,43.162,16.406l7.594,6.75l7.125-7.219c10.125-10.281,23.655-15.937,38.123-15.937
	c29.406,0,53.312,23.75,53.312,52.967s-23.906,52.967-53.312,52.967c-6.968,0-13.749-1.312-20.123-3.906l-11.281-4.562
	l-3.062,11.781c-6.062,23.375-27.281,39.718-51.647,39.718c-15.844,0-30.765-6.938-40.937-19.031l-7.125-8.469l-8.203,7.406
	c-6.687,6.062-14.327,10.781-22.687,14.062l-3.594,1.406l-1.859,3.375c-15.03,27.312-43.687,44.28-74.811,44.28
	C64.947,213.338,26.668,175.057,26.668,127.996z M112.009,234.65c11.016,0,21.781-1.703,31.999-4.906v164.902l0,0
	c0,5.906,4.766,10.688,10.656,10.688s10.672-4.781,10.672-10.688l0,0V220.353c15.515-8.953,28.78-21.828,38.265-37.687
	c6.25-2.734,12.155-6.125,17.655-10.125c13.641,12.234,31.343,19.109,49.968,19.109c30.241,0,57.085-18.062,68.678-45.062
	c5.656,1.344,11.5,2.031,17.437,2.031c7.406,0,14.562-1.094,21.312-3.094v302.461H80.01V229.743
	C90.119,232.931,100.852,234.65,112.009,234.65z M367.994,490.643c0-5.875-4.781-10.656-10.656-10.656
	c-5.905,0-10.687,4.781-10.687,10.656h-21.312c0-5.875-4.781-10.656-10.688-10.656c-5.875,0-10.656,4.781-10.656,10.656h-21.342
	c0-5.875-4.75-10.656-10.656-10.656c-5.883,0-10.663,4.781-10.663,10.656h-21.328c0-5.875-4.781-10.656-10.672-10.656
	s-10.672,4.781-10.672,10.656h-21.327c0-5.875-4.781-10.656-10.672-10.656s-10.656,4.781-10.656,10.656h-21.343
	c0-5.875-4.766-10.656-10.656-10.656s-10.671,4.781-10.671,10.656h-21.328c0-5.875-4.781-10.656-10.672-10.656
	c-5.89,0-10.671,4.781-10.671,10.656H80.01v-21.312h298.641v21.312H367.994z M485.335,405.333h-85.341v-21.344h42.654
	c11.781,0,21.344-9.562,21.344-21.343V213.338c0-11.781-9.562-21.343-21.344-21.343h-42.654v-21.343h85.341V405.333z"/>
<g>
</g>
<g>
</g>
<g>
</g>
<g>
</g>
<g>
</g>
<g>
</g>
<g>
</g>
<g>
</g>
<g>
</g>
<g>
</g>
<g>
</g>
<g>
</g>
<g>
</g>
<g>
</g>
<g>
</g>
</svg>
